<?xml version="1.0" encoding="utf-8"?>
<!-- Generator: Adobe Illustrator 27.5.0, SVG Export Plug-In . SVG Version: 6.00 Build 0)  -->
<svg version="1.1" xmlns="http://www.w3.org/2000/svg" xmlns:xlink="http://www.w3.org/1999/xlink" x="0px" y="0px"
	 viewBox="0 0 500 500" style="enable-background:new 0 0 500 500;" xml:space="preserve">
<g id="BACKGROUND">
	<rect style="fill:#F0EEEF;" width="500" height="500"/>
</g>
<g id="OBJECTS">
	<path style="fill:#D9D9D7;" d="M452.159,459.136c0-3.857-20.201-10.798-133.154-12.855c-112.953-2.057-275.886,1.549-275.886,5.407
		s27.302,13.32,140.256,15.377C296.328,469.121,452.159,462.993,452.159,459.136z"/>
	<g>
		<path style="fill:#2D84A2;" d="M122.146,244.444c0,0,4.169,5.242,25.013-1.272l-3.553-9.119
			C143.606,234.052,129.229,236.359,122.146,244.444z"/>
		<g>
			<g>
				<polygon style="fill:#FFFFFF;" points="150.791,390.774 175.391,410.142 163.161,386.572 157.294,383.337 				"/>
				<polygon style="fill:#FFB373;" points="185.881,361.635 157.294,383.337 163.161,386.572 190.546,367.466 				"/>
				<polygon style="fill:#3793AC;" points="150.791,390.774 175.391,410.142 173.798,412.477 149.083,393.03 				"/>
			</g>
			<g>
				<path style="fill:#44484B;" d="M232.649,325.775l-75.355,57.562l5.867,3.235c0,0,94.093-47.977,98.584-59.953
					c4.49-11.977-69.356-103.26-69.356-103.26l-44.727-16.152c0,0-10.064,28.405-10.366,34.823
					c-0.302,6.418,100.92,76.22,100.92,76.22s-2.278,0.491-3.589,1.147C233.315,320.051,232.649,325.775,232.649,325.775z"/>
			</g>
			<path style="fill:#313538;" d="M241.868,315.618c-11.396-10.825-23.327-21.076-35.772-30.678
				c-5.998-4.628-12.069-9.244-18.447-13.341c-5.969-3.834-12.695-7.502-19.819-8.473c-0.324-0.044-0.478,0.418-0.14,0.507
				c7.321,1.93,13.871,4.94,20.206,9.086c6.128,4.011,11.98,8.475,17.777,12.945c12.391,9.554,24.271,19.759,35.615,30.534
				C241.671,316.563,242.252,315.983,241.868,315.618z"/>
			<path style="opacity:0.1;fill:#CFF0FF;" d="M260.36,323.951c-0.67-2.038-8.074-1.017-8.137-0.125
				c-0.063,0.891,3.556,2.97,5.036,3.006C258.739,326.867,260.624,324.753,260.36,323.951z"/>
		</g>
		<g>
			<g>
				<polygon style="fill:#FFFFFF;" points="76.856,440.058 102.108,446.879 86.345,431.523 79.649,431.747 				"/>
				<polygon style="fill:#FFB373;" points="95.569,398.472 79.649,431.747 86.345,431.523 102.56,401.094 				"/>
				<polygon style="fill:#3793AC;" points="76.856,440.058 102.108,446.879 101.078,449.476 75.79,442.871 				"/>
			</g>
			<path style="fill:#44484B;" d="M192.389,223.358l-56.868-7.515c0,0-11.071,18.744-6.888,33.181
				c1.788,6.171-5.142,85.535-5.142,85.535s-3.051,2.753-3.424,4.064c-0.374,1.311-0.409,7.711-0.409,7.711l-40.009,85.413
				l6.696-0.224c0,0,60.248-86.572,64.11-98.766c3.37-10.641,5.811-41.243,15.457-71.367
				C165.913,261.391,178.562,246.643,192.389,223.358"/>
			<path style="fill:#313538;" d="M131.328,260.906c-0.046-0.307-0.573-0.23-0.565,0.073c0.158,6.051,0.662,12.082,0.71,18.139
				c0.047,5.917-0.138,11.836-0.55,17.74c-0.851,12.185-2.701,24.275-5.475,36.198c-0.156,0.669,0.929,0.954,1.083,0.283
				c2.723-11.875,4.532-23.941,5.365-36.069C132.717,285.302,133.105,272.813,131.328,260.906z"/>
			<path style="opacity:0.2;fill:#212426;" d="M164.602,265.51c0,0,3.375,2.965,8.172,1.926c4.797-1.038,6.864-14.806,5.741-22.09
				c-1.122-7.284-2.188-10.215-2.188-10.215s-2.217,7.39-4.619,13.679C169.307,255.1,165.49,262.337,164.602,265.51z"/>
		</g>
		<path style="fill:#313538;" d="M177.033,228.968c-0.615,3.241-1.061,6.445-2.01,9.618c-1.047,3.5-2.405,6.896-3.87,10.239
			c-1.343,3.063-2.773,6.087-4.145,9.137c-1.277,2.84-3.01,5.966-3.595,9.033c-0.07,0.369,0.432,0.631,0.635,0.268
			c1.719-3.081,2.772-6.663,4.229-9.893c1.427-3.165,2.895-6.312,4.246-9.51c2.452-5.805,5.121-12.413,4.999-18.825
			C177.517,228.764,177.087,228.683,177.033,228.968z"/>
		<path style="fill:#313538;" d="M246.392,319.969c-1.364-0.228-2.718-0.495-4.051-0.863c-1.32-0.365-2.615-0.957-3.961-1.178
			c-0.13-0.021-0.228,0.044-0.273,0.134c-0.217,0.004-0.426,0.182-0.348,0.447c0.307,1.053,1.034,1.979,1.848,2.697
			c0.648,0.572,1.741,1.503,2.649,1.307c0.186-0.04,0.312-0.307,0.191-0.469c-0.251-0.335-0.549-0.425-0.914-0.619
			c-0.457-0.243-0.888-0.527-1.282-0.863c-0.627-0.537-1.08-1.184-1.519-1.86c2.132,1.266,5.073,1.767,7.423,2.126
			C246.714,320.914,246.96,320.064,246.392,319.969z"/>
		<path style="fill:#313538;" d="M166.894,384.154c-1.905-1.108-3.508-2.598-5.316-3.835c-0.166-0.114-0.323,0.128-0.204,0.264
			c1.442,1.663,3.393,2.904,5.152,4.201C166.898,385.059,167.307,384.395,166.894,384.154z"/>
		<path style="fill:#313538;" d="M88.625,428.494c-0.926-0.428-2-0.408-3.001-0.583c-1.147-0.201-2.281-0.476-3.428-0.671
			c-0.287-0.049-0.402,0.342-0.121,0.44c1.17,0.409,2.392,0.66,3.61,0.883c0.934,0.17,1.955,0.462,2.896,0.272
			C88.731,428.803,88.769,428.56,88.625,428.494z"/>
		<path style="fill:#313538;" d="M134.669,233.436c-0.03-0.548-0.887-0.551-0.856,0c0.211,3.793,0.549,7.606,0.572,11.405
			c0.011,1.89-0.111,3.805-0.633,5.631c-0.518,1.813-1.491,3.116-2.378,4.731c-0.083,0.152,0.094,0.368,0.254,0.255
			c2.427-1.726,3.219-5.336,3.482-8.125C135.54,242.756,134.918,238.013,134.669,233.436z"/>
		<path style="fill:#313538;" d="M149.05,299.958c-1.575-0.62-3.168-1.195-4.775-1.728c-1.242-0.412-4.166-0.862-5.477-1.845
			c4.364-1.204,8.511-1.032,13.018-0.504c0.336,0.039,0.38-0.481,0.077-0.572c-4.565-1.378-9.662-0.883-14.216,0.28
			c-0.35,0.089-0.468,0.483-0.318,0.781c0.876,1.746,3.327,1.904,5.003,2.435c3.056,0.969,6.003,2.159,8.977,3.347
			c0.659,0.263,1.034,0.158,0.64,0.484c-0.37,0.306-1.296,0.303-1.789,0.39c-1.402,0.247-2.825,0.35-4.238,0.52
			c-2.251,0.27-4.574,0.596-6.549,1.775c-0.495,0.296-0.169,1.195,0.408,0.968c2.987-1.174,5.913-1.49,9.077-1.899
			c1.078-0.139,4.381-0.109,4.689-1.564C153.927,301.173,150.044,300.349,149.05,299.958z"/>
		<path style="fill:#313538;" d="M227.401,274.961c-1.047-1.661-4.492,1.369-5.384,2.177c-1.278,1.157-2.393,2.479-3.585,3.721
			c-0.734,0.766-3.465,3.866-4.241,2.732c-0.4-0.584,0.504-3.163,0.707-3.936c0.285-1.086,0.637-2.156,1.056-3.198
			c0.913-2.271,2.168-4.439,3.646-6.387c0.212-0.28-0.267-0.654-0.49-0.378c-1.79,2.21-3.244,4.562-4.253,7.236
			c-0.824,2.182-1.995,5.481-1.505,7.856c0.031,0.149,0.164,0.257,0.301,0.301c1.141,0.369,2.604-1.064,3.417-1.738
			c1.643-1.362,2.991-3.032,4.479-4.551c0.806-0.823,1.648-1.621,2.608-2.264c0.404-0.271,0.821-0.527,1.261-0.737
			c1.624-0.775,1.071,0.447,0.867,1.576c-0.536,2.957-1.657,5.798-2.225,8.754c-0.071,0.367,0.422,0.497,0.555,0.153
			c0.839-2.173,1.393-4.441,1.977-6.694C226.855,278.566,228.059,276.006,227.401,274.961z"/>
		<path style="opacity:0.1;fill:#CFF0FF;" d="M148.16,332.844c-0.209-2.135-7.657-2.755-7.913-1.899
			c-0.256,0.856,2.822,3.675,4.258,4.033C145.941,335.336,148.242,333.685,148.16,332.844z"/>
		<path style="fill:#313538;" d="M124.593,338.837c-0.175-1.659,0.176-3.575-0.616-5.064c-0.039-0.074-0.14-0.063-0.182,0
			c-1.048,1.57-0.594,4.094-0.415,5.896c0.199,2.002,0.404,4.206,1.392,5.977c0.234,0.42,0.943,0.244,0.922-0.25
			C125.598,343.2,124.825,341.04,124.593,338.837z"/>
		<path style="fill:#FFC5A7;" d="M102.94,138.948c0,0-38.556,13.92-42.053,17.854c-3.497,3.934,31.47,61.046,31.47,61.046
			l5.392-3.931L79.244,165.98c0,0,24.477-10.49,32.781-13.112L102.94,138.948z"/>
		<path style="fill:#EAA797;" d="M80.26,166.397c-0.362-1.507-0.785-3.208-1.712-4.479c-0.112-0.153-0.322-0.292-0.523-0.213
			c-0.026,0.01-0.052,0.02-0.078,0.031c-0.011,0.005-0.022,0.01-0.033,0.015c-0.196,0.091-0.248,0.334-0.213,0.523
			c0.278,1.522,0.88,2.977,1.181,4.502C79.058,167.673,80.476,167.299,80.26,166.397z"/>
		<path style="fill:#FFC5A7;" d="M238.718,55.413c0,0-7.531-4.485-5.849-5.326c1.683-0.841,6.236,2.241,6.236,2.241
			c-0.138,0.178-1.845-2.578-1.975-5.355c-0.103-2.2,0.713-7.967,1.975-7.967c1.262,0,0.281,6.498,0.281,6.498
			s1.449-7.346,3.225-6.498c0.475,0.227-0.617,7.088-0.617,7.088s1.926-6.902,3.048-6.34c1.122,0.561-0.047,6.685-0.047,6.685
			s1.169-4.768,2.291-4.768c1.122,0-0.234,5.423-0.234,5.423s0.449,3.198,0.978,5.59c0.421,1.902-3.456,5.989-3.456,5.989
			L238.718,55.413z"/>
		<path style="fill:#FFC5A7;" d="M244.575,58.67c0,0-12.912,58.747-21.774,68.265c-5.9,6.338-53.035,18.794-53.035,18.794
			s-6.406-9.53,2.608-22.139c0,0,36.589-9.952,40.195-11.523c3.606-1.571,26.15-56.655,26.15-56.655L244.575,58.67z"/>
		<path style="fill:#EAA797;" d="M212.955,111.695c-0.795,0.544-1.196,1.438-1.603,2.287c-0.461,0.962-0.859,1.956-1.217,2.96
			c-0.316,0.884,1.17,1.312,1.416,0.39c0.261-0.976,0.573-1.928,0.955-2.864c0.34-0.831,0.82-1.618,0.878-2.528
			C213.397,111.732,213.129,111.576,212.955,111.695z"/>
		<path style="fill:#3293B4;" d="M125.4,125.265c0,0,2.325,89.658,0.217,96.687c0,0-7.23,4.249-5.824,7.06
			c1.406,2.811,6.761,4.186,6.761,4.186s-5.77,7.732-4.408,11.246c0,0,34.397-18.275,70.243-21.086c0,0-2.811-13.354-7.029-13.354
			c0,0,4.217-8.434,1.406-11.949c-2.811-3.514-14.367-70.691-16.475-74.908C170.291,123.146,143.436,124.65,125.4,125.265z"/>
		<polygon style="fill:#599BAB;" points="126.152,161.262 176.734,153.083 179.941,169.299 126.405,179.827 		"/>
		<path style="fill:#A44E33;" d="M152.506,87.269c7.909,0.733,16.772,0.274,24.652-0.723c2.431-0.307,4.885-0.706,7.123-1.706
			c-1.227-1.138-2.76-1.944-4.393-2.309c0.25,0.545,3.242-4.39,3.955-6.226c-0.959-0.279-1.977-0.356-2.967-0.223
			c0.987-1.659,0.747-3.739,0.997-5.653c-12.493,0.908-24.985,1.816-37.478,2.724c-0.822,0.06-1.675,0.129-2.388,0.542
			c-1.5,0.868-1.824,2.855-1.988,4.581c-0.12,1.255-3.033-0.34-3.324,1.576c-0.707,4.642,8.062,37.042,13.305,35.667
			C154.691,114.288,153.718,96.432,152.506,87.269z"/>
		<g>
			<g>
				<path style="fill:#FFC5A7;" d="M160.201,107.077l-3.394,24.136c-7.823,5.349-13.371-6.563-13.371-6.563l4.789-25.392
					L160.201,107.077z"/>
				<path style="fill:#EAA797;" d="M149.794,107.546c0,0-4.643,17.882,7.698,18.798l1.75-12.968L149.794,107.546z"/>
				<g>
					<g>
						<g>
							<path style="fill:#FFC5A7;" d="M149.299,102.012c0.213,2.079-1.3,3.843-3.38,3.938c-2.079,0.096-3.938-1.513-4.151-3.592
								c-0.213-2.079,1.3-3.843,3.38-3.938C147.227,98.325,149.086,99.933,149.299,102.012z"/>
						</g>
					</g>
				</g>
				<path style="fill:#FFC5A7;" d="M173.364,81.986c0,0,1.914,35.99-2.898,37.787c-5.677,2.12-15.308,3.7-17.815-2.945
					c-4.605-12.203-7.501-32.897-7.501-32.897L173.364,81.986z"/>
				<path style="fill:#A44E33;" d="M168.481,92.748c0.073,0.721,3.142,0.991,4.925,0.805c1.782-0.186,2.337-0.834,2.264-1.556
					c-0.073-0.721-2.311-1.078-4.093-0.892C169.794,91.291,168.408,92.027,168.481,92.748z"/>
				<path style="fill:#A44E33;" d="M161.392,93.504c0.073,0.721-2.878,1.619-4.661,1.805c-1.783,0.186-2.456-0.335-2.529-1.056
					c-0.073-0.721,2.047-1.533,3.83-1.719C159.815,92.349,161.319,92.783,161.392,93.504z"/>
				<path style="fill:#FFFFFF;" d="M170.291,109.72l-11.19,0.592c0,0,2.832,6.909,7.041,5.815
					C170.351,115.032,170.291,109.72,170.291,109.72z"/>
			</g>
		</g>
		<path style="fill:#A44E33;" d="M149.689,102.889c1.454-0.032-0.814-13.932-0.706-16.741c2.437,1.591,13.922,1.446,18.402,0.161
			c6.861-1.967,8.852-5.197,9.152-7.224c-29.595-2.526-33.999,2.511-33.661,5.065C143.184,86.467,147.737,103.914,149.689,102.889z"
			/>
		<path style="fill:#A44E33;" d="M148.984,86.148c0,0,11.389,7.125,23.869,1.597c0,0-4.286-0.51-9.409-4.4L148.984,86.148z"/>
		<path style="fill:#2F3336;" d="M162.347,97.848c-0.728-0.38-1.549-0.47-2.306-0.126c-0.644,0.293-1.244,0.899-1.501,1.564
			c-0.051,0.131-0.258,0.841,0.05,0.863c0.85,0.061,1.277-1.192,2.049-1.448c1.036-0.343,1.791,0.858,2.691,0.591
			c0.038-0.011,0.074-0.048,0.081-0.088C163.506,98.6,162.834,98.102,162.347,97.848z"/>
		<path style="fill:#2F3336;" d="M172.874,96.573c-1.159-0.161-2.059,0.491-2.746,1.368c-0.325,0.415,0.14,1.055,0.622,0.733
			c0.62-0.413,1.122-1.112,1.928-1.127c0.709-0.013,1.071,0.5,1.683,0.653c0.092,0.023,0.217-0.043,0.228-0.144
			C174.68,97.211,173.581,96.671,172.874,96.573z"/>
		<path style="fill:#EAA797;" d="M169.163,104.429c-0.504-0.839-1.154-1.443-1.558-2.364c-0.293-0.668-0.423-1.458-1.105-1.821
			c-0.031-0.017-0.071-0.003-0.088,0.027c-0.47,0.875,0.151,2.038,0.55,2.845c0.348,0.704,1.918,2.092,1.064,2.75
			c-0.395,0.304-0.213,0.902,0.293,0.914C169.608,106.81,169.665,105.264,169.163,104.429z"/>
		<path style="fill:#EAA797;" d="M147.666,103.124c-0.339-0.671-0.906-1.204-1.604-1.491c-0.581-0.239-1.477-0.469-1.863,0.179
			c-0.073,0.122-0.068,0.318,0.02,0.432c0.321,0.417,0.801,0.336,1.254,0.513c0.293,0.114,0.538,0.296,0.745,0.516
			c-0.277,0.172-0.544,0.356-0.784,0.581c-0.512,0.481,0.201,1.201,0.756,0.892c0.436-0.243,0.841-0.525,1.289-0.75
			C147.806,103.831,147.805,103.399,147.666,103.124z"/>
		<path style="fill:#2D84A2;" d="M162.053,126.362c-0.017-0.093-0.159-0.086-0.181,0c-0.743,2.884-0.823,5.851-1.804,8.709
			c-0.758,2.209-1.976,3.225-4.272,2.907c-1.45-0.201-2.854-0.636-4.203-1.197c-5.016-2.086-8.355-6.083-12.667-9.152
			c-0.06-0.043-0.144,0.042-0.102,0.102c3.533,5.016,9.818,9.68,15.863,10.963c2.419,0.514,4.662,0.435,5.749-2.075
			C161.679,133.749,162.635,129.48,162.053,126.362z"/>
		<path style="fill:#3293B4;" d="M170.291,123.146c0,0,1.652-1.33,2.562-1.539c0.91-0.209,2.331,0.77,2.331,0.77
			s29.882-8.072,33.928-9.395c0,0-2.282,20.327-3.934,24.26l-33.71,12.894C171.468,150.136,161.956,134.62,170.291,123.146z"/>
		<path style="fill:#3293B4;" d="M125.4,125.265c0,0-2.557-1.354-3.65-0.698c-1.093,0.656-2.356,1.728-2.356,1.728l-43.865,17.824
			c0,0,7.867,14.868,17.483,19.458l34.311-11.146C127.323,152.43,135.278,141.37,125.4,125.265z"/>
		<path style="fill:#2D84A2;" d="M178.234,214.438c-3.898,0.405-7.909,1.902-11.677,2.962c-4.077,1.147-8.143,2.355-12.143,3.753
			c-7.738,2.703-15.377,5.865-22.228,10.417c-0.035,0.023-0.002,0.074,0.035,0.055c7.302-3.95,14.885-7.278,22.777-9.862
			c3.791-1.241,7.609-2.389,11.453-3.456c3.883-1.078,8.178-1.725,11.879-3.311C178.602,214.878,178.579,214.402,178.234,214.438z"
			/>
		<path style="fill:#2D84A2;" d="M166.645,212.29c-2.538-0.191-5.254,0.465-7.755,0.907c-2.921,0.516-5.819,1.156-8.685,1.919
			c-5.167,1.376-11.059,2.896-15.615,5.776c-0.088,0.056-0.023,0.19,0.076,0.163c2.717-0.752,5.305-2.013,7.969-2.94
			c2.557-0.89,5.149-1.684,7.765-2.38c2.617-0.696,5.261-1.29,7.924-1.78c2.741-0.504,5.702-0.574,8.375-1.35
			C166.887,212.551,166.816,212.302,166.645,212.29z"/>
		<path style="fill:#2D84A2;" d="M169.032,152.102c-4.517,8.511-8.647,17.204-13.405,25.592
			c-4.766,8.402-10.201,16.322-15.28,24.521c-0.212,0.342,0.332,0.742,0.58,0.415c5.711-7.562,10.548-15.989,15.222-24.218
			c4.805-8.459,9.535-17.131,13.089-26.199C169.29,152.076,169.104,151.965,169.032,152.102z"/>
		<path style="fill:#2D84A2;" d="M170.094,173.187c-0.824,3.175-1.442,6.396-2.317,9.561c-0.862,3.118-2.27,6.232-2.835,9.409
			c-0.03,0.167,0.187,0.251,0.276,0.105c1.678-2.746,2.451-6.261,3.24-9.352c0.808-3.167,1.519-6.446,1.719-9.714
			C170.18,173.147,170.106,173.143,170.094,173.187z"/>
		<path style="fill:#2D84A2;" d="M129.614,130.177c-0.13-0.478-0.872-0.275-0.743,0.205c1.004,3.718,1.374,7.557,1.032,11.396
			c-0.175,1.957-0.538,3.887-1.067,5.778c-0.382,1.367-0.996,4.868-2.506,5.422c-0.037,0.014-0.032,0.068,0.009,0.07
			c0.266,0.012,0.532,0.023,0.798,0.035c0.067,0.003,0.135-0.039,0.168-0.097C131.175,146.186,131.632,137.621,129.614,130.177z"/>
		<path style="fill:#2D84A2;" d="M97.86,160.476c-5.209-5.24-10.246-10.79-15.77-15.699c-0.297-0.264-0.695,0.136-0.435,0.435
			c4.859,5.569,10.362,10.657,15.555,15.914C97.627,161.547,98.278,160.896,97.86,160.476z"/>
		<path style="fill:#2D84A2;" d="M202.358,115.718c-0.015-0.44-0.702-0.442-0.686,0c0.271,7.857-0.789,15.369-2.049,23.095
			c-0.043,0.262,0.328,0.378,0.406,0.112C202.198,131.516,202.622,123.389,202.358,115.718z"/>
		<path style="fill:#FFC5A7;" d="M97.748,213.915c0,0,6.658,3.228,8.37,3.828c1.712,0.601,1.783,6.236,1.854,7.021
			c0.071,0.785-2.14,1.213-2.14,1.213s0.499,1.854,0,2.568s-4.066,0.571-4.351,1.213c-0.285,0.642-2.354,1.022-3.21,1.046
			c-0.856,0.024-3.771-5.87-4.427-7.566c-1.036-2.677-1.488-5.39-1.488-5.39L97.748,213.915z"/>
	</g>
	<g>
		<path style="fill:#EE8043;" d="M323.048,191.135c0,0,11.914,16.731,39.491,11.327C362.54,202.462,348.496,183.986,323.048,191.135
			z"/>
		<path style="fill:#35393A;" d="M362.927,107.245c0,0,1.768,1.775,1.329,2.803c-0.438,1.027-1.156,1.47-1.156,1.47
			s3.34,3.439,3.269,4.746c-0.071,1.307-4.449,7.68-10.118,6.678c-5.669-1.002-8.29-6.615-8.382-12.049
			C347.777,105.46,356.232,100.959,362.927,107.245z"/>
		<path style="fill:#35393A;" d="M341.636,75.981c-4.372,0.571-7.676,2.126-8.059,3.1c-1.224,3.106-0.281,6.144-1.09,6.761
			c-0.809,0.617-1.804,0.926-2.757,1.283c-1.807,0.675-3.537,1.557-5.146,2.623c-0.911,0.604-1.817,1.306-2.288,2.293
			c-0.854,1.791-0.034,3.924,1.016,5.608c1.05,1.684,3.725,5.584-0.74,9.151c2.876,1.751,7.116-0.347,7.585-3.682
			c0.315-2.243-2.845-6.537-2.901-7.041c-0.285-2.584,6.338-5.107,9.525-6.383c3.187-1.276,5.567-3.554,8.96-4.075
			c1.456-0.223,2.949-0.435,4.391-0.133c2.526,0.53,4.602,2.763,4.945,5.321c-0.208-0.073,0.425-0.067,0.645-0.065
			c0.869,0.006,1.741-0.497,2.57-0.236c0.671,0.211,1.109,0.89,1.233,1.582c0.125,0.692-0.008,1.401-0.152,2.09
			c-0.877,4.192-2.174,8.295-3.866,12.229c-0.054,0.126-0.145,0.274-0.282,0.258c-0.136-0.017-0.058-0.298,0.035-0.198
			c1.922,2.064,5.351,2.387,7.669,0.78c2.318-1.606,3.567-4.348,4.369-7.052c0.519-1.751,0.898-3.555,0.937-5.381
			c0.13-6.194-3.834-12.02-9.163-15.179C353.741,76.474,347.779,75.178,341.636,75.981z"/>
		<g>
			<g>
				<path style="fill:#FFC5A7;" d="M344.448,105.28l-3.462,21.499c5.269,6.628,13.145-2.083,13.145-2.083l2.601-22.937
					L344.448,105.28z"/>
				<path style="fill:#EAA797;" d="M351.412,110.443c0,0-0.691,11.691-9.588,11.136l1.783-10.669L351.412,110.443z"/>
				<g>
					<g>
						<g>
							<path style="fill:#FFC5A7;" d="M355.089,103.828c-0.73,1.719,0.097,3.623,1.848,4.252c1.75,0.629,3.761-0.254,4.49-1.973
								c0.73-1.719-0.097-3.623-1.848-4.252C357.829,101.226,355.819,102.109,355.089,103.828z"/>
						</g>
					</g>
				</g>
				<path style="fill:#FFC5A7;" d="M348.119,83.593c-4.87-1.878-10.383,0.386-12.464,5.172c-3.929,9.035-7.996,22.598,1.009,26.064
					c16.232,6.248,26.731-25.343,26.731-25.343L348.119,83.593z"/>
				<path style="fill:#EAA797;" d="M339.262,100.28c-0.901-0.27-2.23-0.022-2.497,1.035c-0.188,0.744,0.723,2.101,1.58,1.728
					c0.078-0.034,0.125-0.118,0.114-0.202c-0.064-0.535-0.764-0.671-0.856-1.191c-0.146-0.826,1.102-0.768,1.595-0.876
					C339.421,100.725,339.531,100.36,339.262,100.28z"/>
				<path style="fill:#35393A;" d="M346.734,80.808c-0.115,1.131-0.158,2.268-0.129,3.404c0.017,0.658,0.059,1.323,0.267,1.948
					c0.628,1.887,2.577,2.964,4.41,3.736c1.833,0.772,3.841,1.517,4.943,3.172c0.842,1.264,1.004,2.866,0.916,4.383
					c-0.047,0.802-0.156,1.612-0.031,2.406c0.125,0.794,0.533,1.596,1.254,1.952c2.657-1.487,4.294-4.252,5.332-7.114
					c0.744-2.051,1.319-4.289,0.757-6.398c-0.508-1.905-1.89-3.461-3.424-4.699c-1.236-0.998-2.606-1.843-4.095-2.395
					C353.603,79.968,350.27,80.478,346.734,80.808z"/>
				<path style="fill:#35393A;" d="M341.154,90.866c-0.252,0.596-2.944,0.019-4.417-0.61c-1.473-0.628-1.775-1.328-1.523-1.924
					c0.252-0.596,2.257-0.312,3.729,0.317C340.417,89.276,341.407,90.269,341.154,90.866z"/>
				<path style="fill:#35393A;" d="M347.007,93.379c-0.252,0.596,2.03,2.141,3.503,2.769c1.473,0.628,2.184,0.361,2.437-0.235
					c0.252-0.596-1.344-1.848-2.816-2.476C348.657,92.809,347.259,92.783,347.007,93.379z"/>
				<path style="fill:#FFFFFF;" d="M335.138,104.878l9.397,3.453c0,0-4.238,5.152-7.543,3.109
					C333.687,109.397,335.138,104.878,335.138,104.878z"/>
			</g>
		</g>
		<path style="fill:#2F3336;" d="M345.047,96.836c0.721-0.132,1.447,0.007,2.002,0.5c0.473,0.42,0.825,1.095,0.87,1.73
			c0.009,0.125-0.002,0.786-0.27,0.724c-0.742-0.172-0.776-1.354-1.368-1.776c-0.794-0.566-1.755,0.261-2.453-0.205
			c-0.03-0.02-0.051-0.061-0.046-0.097C343.859,97.172,344.565,96.924,345.047,96.836z"/>
		<path style="fill:#2F3336;" d="M336.396,92.974c1.032,0.168,1.628,0.961,1.983,1.892c0.168,0.44-0.397,0.864-0.724,0.462
			c-0.421-0.516-0.665-1.245-1.349-1.47c-0.602-0.198-1.046,0.145-1.608,0.114c-0.084-0.005-0.174-0.094-0.157-0.183
			C334.686,93.043,335.767,92.871,336.396,92.974z"/>
		<path style="fill:#EAA797;" d="M356.19,105.207c0.466-0.484,1.091-0.789,1.762-0.85c0.559-0.051,1.385-0.011,1.544,0.644
			c0.03,0.123-0.026,0.289-0.131,0.363c-0.384,0.271-0.772,0.076-1.206,0.107c-0.28,0.02-0.537,0.111-0.772,0.244
			c0.191,0.219,0.371,0.448,0.516,0.703c0.31,0.546-0.488,0.972-0.881,0.562c-0.308-0.322-0.58-0.67-0.903-0.98
			C355.884,105.775,355.999,105.406,356.19,105.207z"/>
		<path style="fill:#FF924F;" d="M371.788,101.126c0.743,2.977,2.918,5.591,4.265,3.924c1.347-1.667,1.588-3.947,1.685-6.088
			c0.125-2.76,0.101-5.526-0.072-8.283c-0.125-1.999-0.337-4.03-1.121-5.873c-1.431-3.365-4.84-5.798-8.488-6.057
			c-0.843-0.06-1.724-0.02-2.493-0.371c-0.922-0.422-1.508-1.322-2.181-2.08c-2.527-2.846-7.71-3.542-11.501-3.206
			c-3.791,0.336-8.869-1.574-10.247,2.89c10.292,1.413,21.193,11.587,22.488,16.336c1.209,4.43,0.358,11.478-1.197,14.929
			c0,0,1.88,0.066,2.616-1.368C365.543,105.877,369.764,105.533,371.788,101.126z"/>
		<path style="fill:#35393A;" d="M358.706,101.775c-0.429,0.633-1.067,1.099-1.743,1.456c-0.353,0.186-0.72,0.348-1.053,0.568
			c-1.313,0.869-1.898,2.693-1.335,4.163c-0.78-0.594-1.633-1.321-1.665-2.301c-0.011-0.328,0.076-0.654,0.212-0.953
			c0.53-1.168,1.715-1.867,2.774-2.591c1.059-0.724,2.136-1.695,2.225-2.975c0.017-0.245,1.007,0.627,1.066,0.924
			C359.299,100.628,359.013,101.322,358.706,101.775z"/>
		<path style="fill:#EE8043;" d="M368.269,91.382c-0.589-3.571-2.468-6.877-5.094-9.335c-1.271-1.19-2.693-2.207-4.176-3.115
			c-1.733-1.061-3.689-2.344-5.682-2.813c-0.202-0.048-0.296,0.191-0.146,0.316c1.487,1.24,3.445,1.946,5.103,2.949
			c1.627,0.984,3.186,2.086,4.556,3.411c1.264,1.223,2.363,2.612,3.15,4.191c0.746,1.496,1.029,3.18,2.011,4.545
			C368.094,91.673,368.293,91.525,368.269,91.382z"/>
		<path style="fill:#EE8043;" d="M368.255,98.344c-0.011-0.21-0.301-0.275-0.374-0.062c-0.365,1.067-0.482,2.237-0.742,3.336
			c-0.263,1.112-0.658,2.197-0.892,3.313c-0.039,0.185,0.224,0.347,0.327,0.151C367.552,103.231,368.364,100.453,368.255,98.344z"/>
		<path style="fill:#EE8043;" d="M373.782,97.722c-0.025-0.09-0.135-0.129-0.207-0.064c-0.493,0.451-0.619,1.157-0.912,1.74
			c-0.09,0.179-0.196,0.349-0.295,0.523c0.412-1.872,0.465-3.859,0.364-5.736c-0.034-0.626-1.022-0.656-0.978-0.03
			c0.175,2.492-0.177,4.801-0.547,7.256c-0.049,0.324,0.32,0.431,0.551,0.296c0.035-0.01,0.07-0.027,0.1-0.059
			c0.58-0.609,1.073-1.263,1.45-2.017C373.603,99.042,373.965,98.387,373.782,97.722z"/>
		<path style="fill:#FFC5A7;" d="M358.809,122.221c0,0,7.435-0.476,12.393,3.182c4.13,3.046,28.626,65.732,34.667,83.148
			l-4.382,5.307c0,0-31.331-68.891-35.116-69.608c-3.831-0.726-5.537,9.223-5.537,9.223S342.794,150.867,358.809,122.221z"/>
		<g>
			<path style="fill:#FFC5A7;" d="M316.277,443.445c0,0,0.378-6.066,0.141-8.494c-0.237-2.428-2.191-14.864-2.191-14.864
				l4.991-0.701c0,0,1.299,10.175,1.411,11.123c0.112,0.948,1.37,1.769,1.926,3.697
				C322.554,434.207,321.584,446.195,316.277,443.445z"/>
			<path style="fill:#44484B;" d="M316.277,443.445c0,0,2.746-0.144,3.753-1.565c1.178-1.663,2.524-7.673,2.524-7.673l3.198,1.777
				l-5.123,16.674l-10.606,4.501l5.07-6.607L316.277,443.445z"/>
		</g>
		<g>
			<path style="fill:#FFC5A7;" d="M435.615,279.294c0,0-5.024,3.42-6.797,5.095c-1.773,1.676-10.401,10.842-10.401,10.842
				l-3.613-3.514c0,0,7.243-7.264,7.923-7.933c0.68-0.669,0.557-2.167,1.741-3.788C424.468,279.997,434.534,273.415,435.615,279.294
				z"/>
			<path style="fill:#44484B;" d="M435.615,279.294c0,0-1.797-2.081-3.537-2.006c-2.036,0.089-7.609,2.709-7.609,2.709l-0.556-3.616
				l16.314-6.172l10.057,5.621l-8.328,0.044L435.615,279.294z"/>
		</g>
		<path style="fill:#FFC5A7;" d="M263.16,60.237c0,0,6.676-3.976,5.185-4.722s-5.528,1.987-5.528,1.987
			c0.122,0.158,1.636-2.286,1.751-4.747c0.091-1.951-0.632-7.063-1.751-7.063c-1.119,0-0.249,5.76-0.249,5.76
			s-1.285-6.512-2.859-5.76c-0.421,0.201,0.547,6.284,0.547,6.284s-1.707-6.118-2.702-5.621c-0.995,0.497,0.041,5.926,0.041,5.926
			s-1.036-4.227-2.031-4.227s0.207,4.807,0.207,4.807s-0.398,2.835-0.867,4.955c-0.373,1.686,3.063,5.309,3.063,5.309L263.16,60.237
			z"/>
		<path style="fill:#FFC5A7;" d="M319.355,130.079c-8.656-2.284-34.596-7.186-39.889-10.691
			c-10.903-7.22-21.497-56.263-21.497-56.263l5.192-2.888c0,0,19.783,49.55,22.879,51.155c2.043,1.059,40.863,9.689,50.587,10.013
			c2.048,0.068,0,0,0,0s-1.492,17.961-8.126,24.534C328.499,145.938,322.902,131.015,319.355,130.079z"/>
		<path style="fill:#EAA797;" d="M290.714,113.986c-0.969-0.656-1.973-1.262-2.962-1.886c-0.859-0.542-1.755-1.271-2.775-1.436
			c-0.152-0.025-0.325,0.131-0.221,0.287c0.551,0.821,1.519,1.317,2.334,1.846c1.043,0.676,2.074,1.376,3.138,2.019
			C290.764,115.138,291.221,114.329,290.714,113.986z"/>
		<path style="fill:#FFC5A7;" d="M330.422,169.398c0,0-4.174,24.062-5.833,30.931c0,0,23.947,8.993,35.305,8.168
			c0,0-2.828-23.801-4.499-37.303L330.422,169.398z"/>
		<path style="fill:#FFC5A7;" d="M336.625,121.404c0,0,15.456,0.506,22.183,0.817c0,0-9.746,29.82-21.452,27.003
			C328.499,147.093,336.625,121.404,336.625,121.404z"/>
		<path style="fill:#FF924F;" d="M362.54,202.462c0,0-9.641-5.324-18.527-7.343c-10.053-2.284-20.965-3.984-20.965-3.984
			l6.05-28.142c0,0-10.249-10.581-6.22-17.055c5.656-9.088,11.628-24.873,11.628-24.873l4.217,0.202c0,0-5.1,20.062,2.224,20.705
			c7.325,0.643,16.545-20.137,16.545-20.137l3.426,0.164c-3.171,18.36-4.932,27.413,0.773,30.526
			C361.693,152.525,363.395,180.037,362.54,202.462z"/>
		<path style="fill:#599BAB;" d="M359.895,208.497c0,0,5.927,7.837,7.459,16.534c1.531,8.697-11.466,95.708-11.466,95.708
			s2.764-1.156,4.858-1.732c2.525-0.694,8.448-0.537,8.448-0.537l48.488-31.208l3.79,5.869c0,0-52.281,45.769-69.488,51.928
			c-17.207,6.159-25.261-112.751-27.393-144.729L359.895,208.497z"/>
		<path style="fill:#599BAB;" d="M324.589,200.33c0,0-32.451,95.933-34.82,107.777c-2.369,11.844,23.687,119.883,23.687,119.883
			l7.373-0.905L310.14,321.04c0,0,1.032-9.618-3.037-11.039c0,0,29.093-43.538,41.435-65.646
			C362.54,219.274,324.589,200.33,324.589,200.33z"/>
		<path style="opacity:0.1;fill:#212426;" d="M331.751,237.132c0,0-10.776,22.044-9.811,29.506c0.965,7.461,9.046,6.859,9.046,6.859
			L331.751,237.132z"/>
		<path style="fill:#458493;" d="M332.724,228.421c-0.103-1.795-0.389-3.586-1.106-5.246c-0.921-2.132-2.295-3.965-2.654-6.313
			c-0.021-0.137-0.245-0.131-0.271,0c-0.281,1.42,0.059,2.616,0.665,3.907c1.148,2.446,2.139,4.508,2.352,7.254
			c0.385,4.951-0.071,10.059-0.164,15.021c-0.122,6.523-0.241,13.046-0.36,19.569c-0.151-0.177-0.436-0.26-0.618-0.053
			c-5.885,6.702-10.901,14.391-15.475,22.026c-4.081,6.81-9.024,14.739-9.241,22.918c-0.004,0.136,0.215,0.171,0.241,0.033
			c1.648-8.586,5.635-15.839,10.169-23.223c4.547-7.405,9.763-14.219,14.914-21.195c-0.063,3.46-0.125,6.919-0.191,10.378
			c-0.012,0.614,0.943,0.614,0.954,0c0.193-10.151,0.402-20.301,0.596-30.452C332.629,238.198,333.002,233.262,332.724,228.421z"/>
		<path style="fill:#458493;" d="M364.305,227.864c-2.788-2.418-5.467-4.232-7.24-7.617c-0.863-1.648-1.481-3.446-1.803-5.279
			c-0.248-1.413-0.048-2.88-0.212-4.279c1.788,0.12,3.582,0.167,5.308-0.031c0.199-0.023,0.291-0.346,0.052-0.386
			c-2.857-0.483-5.846-0.396-8.736-0.639c-3.285-0.276-6.562-0.642-9.825-1.109c-6.196-0.887-12.225-2.324-18.348-3.569
			c-0.458-0.093-0.646,0.563-0.194,0.704c6.046,1.874,12.478,2.925,18.742,3.76c2.91,0.388,5.831,0.701,8.758,0.926
			c1.169,0.09,2.37,0.206,3.577,0.298c-0.962,2.945,0.502,7.277,1.747,9.781c1.562,3.141,4.429,6.836,7.986,7.761
			C364.294,228.232,364.456,227.995,364.305,227.864z"/>
		<g>
			<path style="fill:#EAA797;" d="M414.576,212.681c0.521-1.045,0.97-2.33,1.705-3.333c0.288-0.393,0.595-0.79,1.012-1.043
				c0.401-0.243,0.872-0.335,1.332-0.422c1.644-0.313,3.289-0.625,4.933-0.938c0.266,0.21,0.243,0.722,0.002,0.96
				c-0.748,0.735-5.093,1.472-5.972,2.029C417.177,210.196,415.304,212.023,414.576,212.681z"/>
			<path style="fill:#EAA797;" d="M414.136,213.858c0.645-0.973,1.248-2.194,2.1-3.099c0.334-0.355,0.687-0.711,1.132-0.911
				c0.427-0.192,0.906-0.226,1.374-0.256c1.67-0.109,3.34-0.219,5.011-0.328c0.238,0.241,0.153,0.747-0.115,0.953
				c-0.832,0.638-5.234,0.838-6.175,1.284C417.022,211.709,414.939,213.293,414.136,213.858z"/>
			<path style="fill:#FFC5A7;" d="M401.487,213.858c1.895,3.67,7.699,1.714,9.59,1.685c1.535-0.023,3.007-0.66,4.541-0.716
				c1.221-0.044,2.42,0.282,3.604,0.581c0.556,0.141,1.16,0.085,1.523-0.359c0.485-0.594-3.326-2.777-5.615-2.559
				c1.188-2.394,1.769-4.332,4.442-5.048c2.691-0.721,3.661-1.353,3.739-2.254c-0.903-0.687-4.06,0.214-5.858,1.161
				c-1.798,0.947-1.415,0.949-3.219,1.883c-1.805,0.934-6.388,0.788-8.365,0.318C401.96,208.551,399.71,210.518,401.487,213.858z"/>
		</g>
		<path style="fill:#EE8043;" d="M357.42,163.816c-2.643-0.207-5.257-0.541-7.786-1.37c-2.163-0.709-4.248-1.742-6.532-2.013
			c-1.704-0.202-3.367,0.103-5.016,0.518c-1.083,0.272-2.154,0.607-3.249,0.832c-1.422,0.292-2.76,0.16-4.171,0.286
			c-0.217,0.02-0.348,0.326-0.12,0.445c1.506,0.783,3.293,0.433,4.897,0.08c2.711-0.597,5.329-1.66,8.157-1.15
			c2.267,0.408,4.352,1.493,6.563,2.101c2.371,0.652,4.814,0.862,7.257,0.553C357.597,164.075,357.604,163.831,357.42,163.816z"/>
		<path style="fill:#EE8043;" d="M360.921,196.23c-2.337-1.429-5.198-2.222-7.784-3.088c-3.024-1.012-6.089-1.887-9.196-2.603
			c-5.748-1.325-11.853-2.44-17.773-2.367c-0.306,0.004-0.288,0.428,0,0.463c6.049,0.742,12.038,1.278,17.991,2.674
			c2.697,0.632,5.374,1.365,8.014,2.205c2.878,0.916,5.687,2.321,8.604,3.056C360.982,196.622,361.102,196.341,360.921,196.23z"/>
		<path style="fill:#EE8043;" d="M350.908,166.327c-1.767,0.924-3.105,2.966-4.47,4.415c-1.715,1.82-3.46,3.611-5.234,5.373
			c-3.449,3.424-7.113,6.626-10.553,10.055c-0.166,0.165,0.061,0.487,0.259,0.336c3.874-2.943,7.424-6.388,10.889-9.796
			c1.783-1.753,3.536-3.536,5.259-5.348c1.393-1.464,3.313-2.967,4.066-4.869C351.175,166.365,351.01,166.273,350.908,166.327z"/>
		<path style="fill:#EE8043;" d="M348.232,177.916c-1.701,2.124-2.957,4.905-4.186,7.329c-0.185,0.365,0.334,0.674,0.551,0.322
			c1.427-2.312,3.151-4.836,4.075-7.395C348.758,177.932,348.395,177.711,348.232,177.916z"/>
		<path style="fill:#EE8043;" d="M356.638,126.726c-3.678,5.566-6.33,13.897-12.752,16.675c-3.808,1.647-8.309,0.126-8.899-4.504
			c-0.471-3.698,0.608-7.654,1.138-11.305c0.024-0.165-0.226-0.202-0.272-0.047c-0.683,2.306-1.04,4.727-1.309,7.114
			c-0.215,1.91-0.457,3.982,0.118,5.839c0.939,3.027,4.004,4.646,6.943,4.365c3.505-0.335,6.346-2.863,8.449-5.669
			c2.725-3.635,5.375-7.978,6.921-12.306C357.052,126.671,356.757,126.546,356.638,126.726z"/>
		<path style="fill:#67B4C7;" d="M327.485,244.343c-4.009-2.123-8.045-4.725-12.38-6.315c-0.515-0.189-1.184,0.358-0.663,0.736
			c2.884,2.095,6.344,3.756,9.674,5.424c-3.279-0.07-6.558-0.151-9.837-0.248c-0.671-0.02-1.094,0.655-0.761,1.135
			c2.07,2.983,6.228,6.471,10.64,6.084c0.479-0.042,0.712-0.568,0.255-0.806c-3.159-1.649-6.069-2.537-8.383-4.888
			c3.687,0.028,7.372,0.067,11.059,0.134C327.888,245.611,328.131,244.685,327.485,244.343z"/>
		<path style="fill:#67B4C7;" d="M356.568,246.891c-4.242-0.933-8.61-2.277-13.05-2.673c-0.527-0.047-1.046,0.581-0.474,0.791
			c3.17,1.165,6.796,1.822,10.3,2.514c-3.122,0.686-6.245,1.363-9.372,2.025c-0.64,0.135-0.899,0.819-0.483,1.161
			c2.586,2.124,7.254,4.21,11.353,2.868c0.445-0.146,0.555-0.656,0.073-0.759c-3.338-0.715-6.28-0.824-8.965-2.343
			c3.499-0.816,6.999-1.621,10.505-2.403C357.215,247.903,357.252,247.042,356.568,246.891z"/>
		<path style="fill:#458493;" d="M308.42,306.617c-1.378,1.308-2.144,3.393-3.311,4.927c-1.288,1.693-3.084,3.055-4.229,4.828
			c-0.157,0.244,0.141,0.456,0.36,0.36c1.949-0.857,3.529-2.911,4.803-4.558c1.16-1.499,2.748-3.385,2.982-5.306
			C309.064,306.544,308.621,306.426,308.42,306.617z"/>
		<path style="fill:#458493;" d="M356.586,314.269c-0.024-0.143-0.268-0.145-0.291,0c-0.761,4.892-1.009,9.634-2.638,14.37
			c-0.259,0.753,0.975,1.102,1.198,0.33C356.183,324.362,357.402,319.074,356.586,314.269z"/>
		<path style="fill:#458493;" d="M417.489,295.934c-0.78-0.986-1.57-1.963-2.361-2.94c-0.704-0.87-1.362-1.855-2.278-2.511
			c-0.208-0.149-0.555,0.103-0.453,0.349c0.418,1.012,1.195,1.857,1.863,2.719c0.817,1.054,1.633,2.107,2.461,3.152
			C417.154,297.251,417.919,296.477,417.489,295.934z"/>
		<path style="fill:#458493;" d="M321.965,422.172c-1.713,0.143-3.332,0.69-5.077,0.734c-1.47,0.038-3.092-0.538-4.472-0.036
			c-0.063,0.023-0.092,0.101-0.04,0.152c1.074,1.05,3.097,0.931,4.512,0.893c1.734-0.046,3.734-0.211,5.254-1.09
			C322.428,422.66,322.323,422.142,321.965,422.172z"/>
		<path style="opacity:0.1;fill:#CFF0FF;" d="M290.832,310.435c0.858-1.966,8.134-0.255,8.113,0.638s-3.819,2.624-5.296,2.521
			C292.173,313.491,290.494,311.21,290.832,310.435z"/>
		<path style="opacity:0.1;fill:#CFF0FF;" d="M350.074,343.729c-1.781-1.195,1.203-8.049,2.078-7.868
			c0.875,0.18,1.899,4.226,1.534,5.661C353.32,342.956,350.776,344.2,350.074,343.729z"/>
		<path style="fill:#458493;" d="M364.409,231.184c-1.315,6.778-2.057,13.704-3.042,20.535c-1.025,7.114-2.01,14.234-3.047,21.346
			c-1.015,6.964-2.03,13.928-3.046,20.892c-0.946,6.488-2.168,13.126-0.412,19.54c0.15,0.549,0.993,0.315,0.843-0.237
			c-1.797-6.62-0.422-13.525,0.536-20.212c0.976-6.813,1.952-13.625,2.929-20.438c0.977-6.815,2.006-13.624,2.993-20.438
			c1.006-6.941,2.279-13.913,2.947-20.892C365.149,230.874,364.488,230.777,364.409,231.184z"/>
		<path style="fill:#458493;" d="M312.469,365.42c-0.723-8.358-1.32-16.728-2.13-25.078c-0.802-8.261-1.527-16.903-3.853-24.899
			c-0.036-0.124-0.25-0.107-0.234,0.032c0.98,8.595,2.504,17.112,3.36,25.731c0.844,8.493,1.424,17.01,2.172,25.512
			c1.509,17.161,3.67,34.323,6.935,51.244c0.074,0.384,0.644,0.217,0.582-0.16C316.431,400.409,313.987,382.986,312.469,365.42z"/>
	</g>
	<path style="fill:#2D84A2;" d="M127.703,156.639c-0.184-0.761-1.375-0.437-1.175,0.324c2.636,10.063,2.322,20.463,1.872,30.765
		c-0.459,10.524-1.438,21.098-1.469,31.633c-0.001,0.267,0.38,0.255,0.406,0c1.107-10.791,1.287-21.733,1.924-32.562
		C129.855,176.709,130.098,166.533,127.703,156.639z"/>
	<path style="fill:#D9D9D7;" d="M257.215,26.454c-0.074-1.338-0.531-5.337-2.922-4.126c-2.07,1.049-1.559,3.946-1.528,5.89
		c0.041,2.565,0.325,4.824,1.767,6.993c0.309,0.465,0.994,0.503,1.295,0C257.46,32.482,257.385,29.547,257.215,26.454z"/>
	<path style="fill:#D9D9D7;" d="M276.623,42.71c1.04-0.845,4.01-3.561,1.626-4.787c-2.064-1.061-4.11,1.053-5.666,2.219
		c-2.052,1.539-3.715,3.094-4.625,5.535c-0.195,0.523,0.176,1.1,0.76,1.049C271.887,46.446,274.219,44.662,276.623,42.71z"/>
	<path style="fill:#D9D9D7;" d="M227.95,33.114c-0.928-0.965-3.848-3.723-4.511-1.528c-0.574,1.9,1.652,3.802,2.954,5.245
		c1.719,1.904,3.383,3.448,5.698,4.302c0.496,0.183,0.94-0.157,0.792-0.696C232.08,37.509,230.096,35.345,227.95,33.114z"/>
	<path style="fill:#D9D9D7;" d="M267.626,32.985c-0.972,0.782-2.284,1.617-2.889,2.734c-0.371,0.684,0.24,1.477,0.995,1.295
		c1.237-0.299,2.382-1.353,3.388-2.092C270.544,33.875,269.027,31.858,267.626,32.985z"/>
	<path style="fill:#D9D9D7;" d="M243.015,29.914c0.37,1.191,0.666,2.718,1.482,3.692c0.5,0.596,1.462,0.319,1.57-0.45
		c0.176-1.26-0.383-2.712-0.702-3.92C244.914,27.527,242.482,28.198,243.015,29.914z"/>
</g>
</svg>
